# xmcd CD database file generated by OrangeCD 5.2
#
# Track frame offsets:
#	150
#	1275
#	29810
#	58030
#	85075
#	109368
#	126825
#	164239
#	189280
#
# Disc length: 2731 seconds
#
# Revision: 0
# Processed by: cddbd v1.5.1PL0 Copyright (c) Steve Scherf et al.
# Submitted via: OrangeCD 5.2
#
DISCID=7a0aa909
DTITLE=Peter Green and The Splinter Group - De Boerderij, Zoetemeer, Nederland
DYEAR=2003
DGENRE=Blues
TTITLE0=Intro
TTITLE1=Big Change
TTITLE2=It Only Takes Time
TTITLE3=I Believe my time ain't long
TTITLE4=Running After You
TTITLE5=Little Red Rooster
TTITLE6=Real World
TTITLE7=Shadow On My Door
TTITLE8=The Stumble
EXTD=
EXTT0=
EXTT1=
EXTT2=
EXTT3=
EXTT4=
EXTT5=
EXTT6=
EXTT7=
EXTT8=
PLAYORDER=
